<svg xmlns="http://www.w3.org/2000/svg" viewBox="0 0 673.39 1155.26"><defs><style>.cls-2{fill:#fff}</style></defs><text transform="translate(0 1039.49)" fill="#fff" font-size="67.5" font-family="KohinoorDevanagari-Bold,Kohinoor Devanagari" font-weight="700" id="Layer_1" data-name="Layer 1">DESIGN</text><g id="Layer_2" data-name="Layer 2"><path class="cls-2" d="M6.18 464.93H232.9v34.24H6.18zm-.45 76.89H232.9v34.24H5.73zm1.33 77.89H232.9v34.24H7.06zm-1.07 82.88h226.9v34.24H5.99zm-.12 76.89h227.02v34.24H5.87zm1.09 74.89H232.9v34.24H6.96zm-.91 80.88H232.9v34.24H6.05z"/><path class="cls-2" transform="rotate(90 201.09 235.5)" d="M430.78 203.3h188.74v34.24H430.78z"/><path class="cls-2" transform="rotate(90 7.11 392.79)" d="M234.25 360.59h193.84v34.24H234.25z"/><path class="cls-2" transform="rotate(90 201.285 434.025)" d="M470 401.83h110.69v34.24H470z"/><path class="cls-2" transform="rotate(90 201.525 587.775)" d="M468.12 555.58h114.93v34.24H468.12z"/><path class="cls-2" transform="rotate(90 7.59 587.17)" d="M275.04 554.97h113.22v34.24H275.04z"/></g></svg>