<svg xmlns="http://www.w3.org/2000/svg" viewBox="0 0 435.95 1112.05"><defs><style>.cls-2{fill:#fff}</style></defs><g id="Layer_2" data-name="Layer 2"><g id="Layer_1-2" data-name="Layer 1"><text transform="translate(0 1050.35)" style="isolation:isolate" fill="#fff" font-size="123.4" font-family="KohinoorDevanagari-Bold,Kohinoor Devanagari" font-weight="700">DESIGN</text><path class="cls-2" d="M11.3 0h414.47v62.59H11.3zm-.82 140.56h415.29v62.59H10.48zm2.43 142.39h412.86v62.59H12.91zm-1.96 151.51h414.79v62.59H10.95zm-.22 140.57h415.01v62.59H10.73zm1.99 136.9h413.04v62.59H12.72zm-1.66 147.86h414.7v62.59H11.06z"/><path class="cls-2" d="M363.88.48h62.59v345.03h-62.59zM9.27 283.35h62.59v354.36H9.27zm354.96 151.39h62.59v202.35h-62.59zm.44 277.19h62.59v210.1h-62.59zm-354.52.46h62.59v206.98H10.15z"/></g></g></svg>