<svg xmlns="http://www.w3.org/2000/svg" viewBox="0 0 673.39 1155.26"><defs><style>.cls-1{font-size:67.5px;font-family:KohinoorDevanagari-Bold, Kohinoor Devanagari;font-weight:700;}.cls-1,.cls-2{fill:#fff;}</style></defs><title>360-logo-wW-final</title><g id="Layer_1" data-name="Layer 1"><text class="cls-1" transform="translate(0 1039.49)">DESIGN</text><text x="-308.99" y="339.13"/></g><g id="Layer_2" data-name="Layer 2"><rect class="cls-2" x="6.18" y="464.93" width="226.72" height="34.24"/><rect class="cls-2" x="5.73" y="541.82" width="227.17" height="34.24"/><rect class="cls-2" x="7.06" y="619.71" width="225.84" height="34.24"/><rect class="cls-2" x="5.99" y="702.59" width="226.9" height="34.24"/><rect class="cls-2" x="5.87" y="779.48" width="227.02" height="34.24"/><rect class="cls-2" x="6.96" y="854.37" width="225.94" height="34.24"/><rect class="cls-2" x="6.05" y="935.25" width="226.85" height="34.24"/><rect class="cls-2" x="430.78" y="203.3" width="188.74" height="34.24" transform="translate(436.59 34.41) rotate(90)"/><rect class="cls-2" x="234.25" y="360.59" width="193.84" height="34.24" transform="translate(399.9 385.68) rotate(90)"/><rect class="cls-2" x="470" y="401.83" width="110.69" height="34.24" transform="translate(635.31 232.74) rotate(90)"/><rect class="cls-2" x="468.12" y="555.58" width="114.93" height="34.24" transform="translate(789.3 386.25) rotate(90)"/><rect class="cls-2" x="275.04" y="554.97" width="113.22" height="34.24" transform="translate(594.76 579.58) rotate(90)"/></g></svg>